<svg height="512" viewBox="0 0 64 64" width="512" xmlns="http://www.w3.org/2000/svg"><g id="stock"><path d="m47 33h12v28h-12z" fill="#ff7956"/><path d="m26 29h12v32h-12z" fill="#ffe477"/><path d="m5 20h12v41h-12z" fill="#ff7956"/><path d="m17 20v41h-12v-3h5a4 4 0 0 0 4-4v-34z" fill="#ff5023"/><path d="m59 33v28h-12v-3h5a4 4 0 0 0 4-4v-21z" fill="#ff5023"/><path d="m38 29v32h-12v-3h5a4 4 0 0 0 4-4v-25z" fill="#ebbf00"/><circle cx="51" cy="13" fill="#ffe477" r="10"/><path d="m61 13a10 10 0 0 1 -18.41 5.41 10 10 0 0 0 13.82-13.82 9.992 9.992 0 0 1 4.59 8.41z" fill="#ebbf00"/><path d="m38 28h-12a1 1 0 0 0 -1 1v32a1 1 0 0 0 1 1h12a1 1 0 0 0 1-1v-32a1 1 0 0 0 -1-1zm-1 32h-10v-30h10z"/><path d="m17 19h-12a1 1 0 0 0 -1 1v41a1 1 0 0 0 1 1h12a1 1 0 0 0 1-1v-41a1 1 0 0 0 -1-1zm-1 41h-10v-39h10z"/><path d="m59 32h-12a1 1 0 0 0 -1 1v28a1 1 0 0 0 1 1h12a1 1 0 0 0 1-1v-28a1 1 0 0 0 -1-1zm-1 28h-10v-26h10z"/><path d="m56.76 22.35a10.992 10.992 0 1 0 -16.76-9.35 10.837 10.837 0 0 0 1.34 5.25l-5.34 5.34-14.29-14.3a1.008 1.008 0 0 0 -1.42 0l-4.79 4.8-12.79-12.8-1.42 1.42 13.5 13.5a1.008 1.008 0 0 0 1.42 0l4.79-4.8 14.29 14.3a1.014 1.014 0 0 0 1.42 0l5.76-5.77a11 11 0 0 0 8.53 4.06 10.856 10.856 0 0 0 3.87-.72l6.42 6.43 1.42-1.42zm-5.76-.35a9 9 0 1 1 9-9 9.014 9.014 0 0 1 -9 9z"/><path d="m50 10v2h2a2.006 2.006 0 0 1 2 2v2a2.006 2.006 0 0 1 -2 2v2h-2v-2h-2v-2h4v-2h-2a2.006 2.006 0 0 1 -2-2v-2a2.006 2.006 0 0 1 2-2v-2h2v2h2v2z"/></g></svg>